<?xml version="1.0" encoding="utf-8"?>
<!-- Generator: Adobe Illustrator 26.0.2, SVG Export Plug-In . SVG Version: 6.00 Build 0)  -->
<svg version="1.1" id="Layer_1" xmlns="http://www.w3.org/2000/svg" xmlns:xlink="http://www.w3.org/1999/xlink" x="0px" y="0px"
	 viewBox="0 0 192 192" style="enable-background:new 0 0 192 192;" xml:space="preserve">
<style type="text/css">
	.st0{fill:#37C84C;}
	.st1{fill:#27AA35;}
	.st2{display:none;}
	.st3{display:inline;fill:#7E0409;stroke:#7E0409;stroke-linejoin:round;stroke-miterlimit:10;}
	.st4{fill:#0D650D;}
</style>
<g>
	<circle class="st0" cx="96" cy="96" r="92"/>
	<path class="st1" d="M96,8c48.52,0,88,39.48,88,88s-39.48,88-88,88S8,144.52,8,96S47.48,8,96,8 M96,0C42.98,0,0,42.98,0,96
		s42.98,96,96,96s96-42.98,96-96S149.02,0,96,0L96,0z"/>
</g>
<g class="st2">
	
		<rect x="41.2" y="88.26" transform="matrix(0.7071 0.7071 -0.7071 0.7071 96 -39.7645)" class="st3" width="109.6" height="15.48"/>
	
		<rect x="41.2" y="88.26" transform="matrix(0.7071 -0.7071 0.7071 0.7071 -39.7645 96)" class="st3" width="109.6" height="15.48"/>
</g>
<g>
	<polyline class="st4" points="48,120.5 48,48.5 120,48.5 	"/>
	<polyline class="st4" points="144,71.5 144,143.5 72,143.5 	"/>
</g>
</svg>
