<?xml version="1.0" encoding="utf-8"?>
<!-- Generator: Adobe Illustrator 26.0.2, SVG Export Plug-In . SVG Version: 6.00 Build 0)  -->
<svg version="1.1" id="Layer_1" xmlns="http://www.w3.org/2000/svg" xmlns:xlink="http://www.w3.org/1999/xlink" x="0px" y="0px"
	 viewBox="0 0 192 192" style="enable-background:new 0 0 192 192;" xml:space="preserve">
<style type="text/css">
	.st0{fill:#343A40;}
	.st1{fill:#708090;}
</style>
<circle class="st0" cx="96" cy="96" r="96"/>
<path class="st1" d="M37.08,42.44v72.65l-12.22,12.39c-2.45,2.44-3.83,5.74-3.85,9.2c0.03,7.1,5.78,12.85,12.89,12.89h124.2
	c7.1-0.03,12.85-5.78,12.89-12.89c-0.02-3.46-1.41-6.77-3.85-9.21l-12.22-12.39V42.44H37.08z M47.79,53.15h96.41v58.92H47.79V53.15z
	 M96,58.51l-8.04,48.21H96l8.03-48.21L96,58.51L96,58.51z M75.04,69.22L65.83,80.3l-1.97,2.31l1.97,2.31L75.04,96l5.82-4.62
	l-7.3-8.77l7.28-8.77L75.04,69.22L75.04,69.22L75.04,69.22z M116.96,69.22l-5.82,4.62l7.3,8.77l-7.28,8.77l5.81,4.62l9.21-11.08
	l1.96-2.31l-1.97-2.31C126.17,80.3,116.96,69.22,116.96,69.22z M44.78,122.78h102.44L159.6,135c0.43,0.46,0.66,1.05,0.67,1.68
	c0.06,1.14-0.81,2.11-1.95,2.18c-0.07,0-0.15,0-0.22,0H33.9c-1.14,0.06-2.11-0.81-2.18-1.95c0-0.07,0-0.15,0-0.22
	c0-0.59,0.25-1.25,0.67-1.68L44.78,122.78L44.78,122.78z"/>
</svg>
